# xmcd
#
# Track frame offsets:
# 150
# 15351
# 31344
# 49468
# 66466
# 86702
# 101880
# 121079
# 140944
# 163391
# 178623
# 206654
#
# Disc length: 2996 seconds
#
#
# Revision: 2
# Processed by: cddbd v1.5.2PL0 Copyright (c) Steve Scherf et al.
# Submitted via: FreeRIP 2.951 
#
DISCID=b40bb20c
DTITLE=Hobo Blues Band - Gyöngy a sárban
DYEAR=2000
DGENRE=Blues
TTITLE0=A láthatatlan légió
TTITLE1=Barátból ne legyen szolga
TTITLE2=Bukott angyal
TTITLE3=Lenn a folyónál
TTITLE4=Vadember
TTITLE5=Latin lecke
TTITLE6=Gyöngy a sárban
TTITLE7=Good Bye Allen
TTITLE8=Lázas évtized
TTITLE9=Ülni, állni, ölni, halni
TTITLE10=Közép-európai Hobo Blues 2000
TTITLE11=Rock and roll királynö
EXTD=YEAR: 2000 ID3G: 0
EXTT0=
EXTT1=
EXTT2=
EXTT3=
EXTT4=
EXTT5=
EXTT6=
EXTT7=
EXTT8=
EXTT9=
EXTT10=
EXTT11=
PLAYORDER=
